# ProBuilder 4.0.5
# https://unity3d.com/unity/features/worldbuilding/probuilder
# 11/9/2019 1:56:33 PM

mtllib ./TetrisJ.mtl
o TetrisJ

g TetrisJ
v -31 -8 0
v -31 -10 -2.384186E-07
v -34 -10 -2.384186E-07
v -34 -9 -1.192093E-07
v -32 -9 -1.192093E-07
v -32 -8 0
v -31 -10 -1
v -32 -9 -1
v -34 -10 -1
v -34 -9 -1
v -31 -8 -1
v -32 -8 -1

vt 0 0
vt 0 2
vt 3 2
vt 3 1
vt 1 1
vt 1 0
vt -1 1
vt -3 2
vt -3 1
vt -1 0
vt 1 -1
vt 0 -1
vt -2 0
vt -2 -1
vt 2 0
vt 2 -1
vt 3 0
vt 3 -1
vt -3 0
vt -3 -1

vn 0 -1.192093E-07 1
vn 0 1.192093E-07 -1
vn -1 0 0
vn 0 1 1.192093E-07
vn 1 0 0
vn 0 -1 -1.192093E-07

g TetrisJ
usemtl ProBuilderDefault
f 1/1/1 6/6/1 5/5/1
f 2/2/1 1/1/1 5/5/1
f 5/5/1 4/4/1 3/3/1
f 2/2/1 5/5/1 3/3/1
f 9/8/2 8/7/2 7/2/2
f 9/8/2 10/9/2 8/7/2
f 8/7/2 11/1/2 7/2/2
f 8/7/2 12/10/2 11/1/2
f 6/1/3 12/12/3 8/11/3
f 8/11/3 5/6/3 6/1/3
f 1/1/4 11/12/4 12/11/4
f 12/11/4 6/6/4 1/1/4
f 2/13/5 7/14/5 11/12/5
f 11/12/5 1/1/5 2/13/5
f 4/6/3 10/11/3 9/16/3
f 9/16/3 3/15/3 4/6/3
f 5/6/4 8/11/4 10/18/4
f 10/18/4 4/17/4 5/6/4
f 3/19/6 9/20/6 7/12/6
f 7/12/6 2/1/6 3/19/6

