# ProBuilder 4.0.5
# https://unity3d.com/unity/features/worldbuilding/probuilder
# 11/9/2019 1:56:15 PM

mtllib ./TetrisI.mtl
o TetrisI

g TetrisI
v -23 -10 0
v -27 -10 0
v -27 -9 1.192093E-07
v -23 -9 1.192093E-07
v -23 -10 -1
v -27 -9 -1
v -27 -10 -1
v -23 -9 -1

vt 0 0
vt 4 0
vt 4 -1
vt 0 -1
vt -4 -1
vt -4 0
vt 1 0
vt 1 -1
vt -1 0
vt -1 -1

vn 0 -1.192093E-07 1
vn 0 1.192093E-07 -1
vn 0 1 1.192093E-07
vn 1 0 0
vn -1 0 0
vn 0 -1 -1.192093E-07

g TetrisI
usemtl ProBuilderDefault
f 2/2/1 1/1/1 4/4/1 3/3/1
f 8/4/2 5/1/2 7/6/2 6/5/2
f 3/2/3 4/1/3 8/4/3 6/3/3
f 4/7/4 1/1/4 5/4/4 8/8/4
f 2/1/5 3/9/5 6/10/5 7/4/5
f 1/1/6 2/6/6 7/5/6 5/4/6

