# ProBuilder 4.0.5
# https://unity3d.com/unity/features/worldbuilding/probuilder
# 11/9/2019 1:57:02 PM

mtllib ./TetrisO.mtl
o TetrisO

g TetrisO
v -28 -10 0
v -30 -10 0
v -30 -8 2.384186E-07
v -28 -8 2.384186E-07
v -28 -10 -1
v -30 -8 -0.9999999
v -30 -10 -1
v -28 -8 -0.9999999

vt 0 0
vt 2 0
vt 2 -2
vt 0 -2
vt -2 -2
vt -2 0
vt 2 -1
vt 0 -1
vt -2 -1

vn 0 -1.192093E-07 1
vn 0 1.192093E-07 -1
vn 0 1 1.192093E-07
vn 1 0 0
vn -1 0 0
vn 0 -1 -1.192093E-07

g TetrisO
usemtl ProBuilderDefault
f 2/2/1 1/1/1 4/4/1 3/3/1
f 8/4/2 5/1/2 7/6/2 6/5/2
f 3/2/3 4/1/3 8/8/3 6/7/3
f 4/2/4 1/1/4 5/8/4 8/7/4
f 2/1/5 3/6/5 6/9/5 7/8/5
f 1/1/6 2/6/6 7/9/6 5/8/6

