# ProBuilder 4.0.5
# https://unity3d.com/unity/features/worldbuilding/probuilder
# 11/9/2019 1:57:14 PM

mtllib ./TetrisS.mtl
o TetrisS

g TetrisS
v -40 -10 0
v -42 -10 0
v -42 -9 1.192093E-07
v -43 -9 1.192093E-07
v -43 -8 2.384186E-07
v -41 -8 2.384186E-07
v -41 -9 1.192093E-07
v -40 -9 1.192093E-07
v -40 -10 -1
v -41 -9 -1
v -42 -10 -1
v -42 -9 -1
v -41 -8 -0.9999999
v -43 -8 -0.9999999
v -43 -9 -1
v -40 -9 -1

vt 0 0
vt 2 0
vt 2 -1
vt 3 -1
vt 3 -2
vt 1 -2
vt 1 -1
vt 0 -1
vt -1 -1
vt -2 0
vt -2 -1
vt -1 -2
vt -3 -2
vt -3 -1
vt 1 0
vt -1 0
vt -3 0
vt 3 0

vn 0 -1.192093E-07 1
vn 0 1.192093E-07 -1
vn 0 1 1.192093E-07
vn 1 0 0
vn -1 0 0
vn 0 -1 -1.192093E-07

g TetrisS
usemtl ProBuilderDefault
f 1/1/1 8/8/1 7/7/1
f 3/3/1 5/5/1 4/4/1
f 5/5/1 3/3/1 6/6/1
f 3/3/1 7/7/1 6/6/1
f 7/7/1 3/3/1 2/2/1
f 1/1/1 7/7/1 2/2/1
f 11/10/2 10/9/2 9/1/2
f 11/10/2 12/11/2 10/9/2
f 13/12/2 10/9/2 12/11/2
f 13/12/2 12/11/2 14/13/2
f 15/14/2 14/13/2 12/11/2
f 10/9/2 16/8/2 9/1/2
f 8/1/3 16/8/3 10/7/3
f 10/7/3 7/15/3 8/1/3
f 1/1/4 9/8/4 16/7/4
f 16/7/4 8/15/4 1/1/4
f 5/10/5 14/11/5 15/9/5
f 15/9/5 4/16/5 5/10/5
f 4/17/6 15/14/6 12/11/6
f 12/11/6 3/10/6 4/17/6
f 6/15/3 13/7/3 14/4/3
f 14/4/3 5/18/3 6/15/3
f 7/15/4 10/7/4 13/3/4
f 13/3/4 6/2/4 7/15/4
f 3/16/5 12/9/5 11/8/5
f 11/8/5 2/1/5 3/16/5
f 2/10/6 11/11/6 9/8/6
f 9/8/6 1/1/6 2/10/6

